#!OML:ASF E:\Mandelcareful walks\Project 1\Capture day 1\Session 1\Subject1.ASF
:FULLY-SPECIFIED
:DEGREES
647
root -11.9445 15.515 0.605473 516.477 -94.5303 -153.959
lowerback 21.644 3.43256 -8.50885
upperback 11.6857 1.89745 -1.56947
thorax 0.49566 0.209568 2.72163
lowerneck -16.1757 4.2201 -3.26204
upperneck 49.5251 3.30764 2.81438
head 24.6119 0.0426019 2.74196
rclavicle 1.03368e-014 -1.82882e-014
rhumerus 45.3694 -37.251 -25.8039
rradius 148.162
rwrist -51.5393
rhand 25.1387 -26.9777
rfingers 7.12502
rthumb 49.2885 311.434
lclavicle 1.03368e-014 -1.82882e-014
lhumerus 34.3622 9.53199 22.2017
lradius 136.725
lwrist -12.2422
lhand -45.9828 274.146
lfingers 7.12502
lthumb -18.7292 -56.7356
rfemur -18.5816 -14.6899 3.45403
rtibia 85.0869
rfoot -9.1293 -8.58098
rtoes -3.19468
lfemur -30.3595 7.62308 -19.2414
ltibia 60.6142
lfoot -24.3328 6.98299
ltoes -6.12752
648
root -12.5442 15.5338 0.641722 502.797 -93.703 -139.895
lowerback 21.8747 3.40039 -9.03606
upperback 11.376 1.70393 -1.93545
thorax 0.066261 0.126141 2.65943
lowerneck -16.0862 4.32357 -3.42122
upperneck 49.5898 3.39174 2.94426
head 24.6161 0.0303726 2.85869
rclavicle 1.11319e-014 2.62396e-014
rhumerus 44.999 -37.0807 -25.3962
rradius 148.424
rwrist -50.6218
rhand 22.2108 -30.1505
rfingers 7.12502
rthumb 46.5888 307.004
lclavicle 1.11319e-014 2.62396e-014
lhumerus 33.823 8.55304 22.6571
lradius 136.813
lwrist -12.4034
lhand -45.6577 274.637
lfingers 7.12502
lthumb -18.4164 -56.2149
rfemur -24.5324 -14.0766 4.56278
rtibia 85.5234
rfoot -10.4653 -9.45149
rtoes -1.46859
lfemur -27.3466 7.805 -19.2251
ltibia 60.3841
lfoot -26.17 5.83924
ltoes 2.26803
649
root -13.2502 15.6624 0.69711 489.557 -94.1263 -126.561
lowerback 21.4559 3.07473 -9.67947
upperback 11.3877 1.20469 -2.23786
thorax 0.349446 -0.153682 2.80723
lowerneck -15.8043 4.39799 -3.52865
upperneck 49.6015 3.5578 2.75851
head 24.4844 0.0337732 2.78876
rclavicle -8.34896e-015 -1.11319e-014
rhumerus 44.6476 -36.8026 -24.6633
rradius 148.541
rwrist -49.1832
rhand 19.9761 -32.0943
rfingers 7.12502
rthumb 44.5128 304.217
lclavicle -8.34896e-015 -1.11319e-014
lhumerus 33.281 8.47343 23.4936
lradius 137.626
lwrist -9.14843
lhand -42.8199 276.356
lfingers 7.12502
lthumb -15.6849 -54.2598
rfemur -28.2274 -14.0204 4.73866
rtibia 83.6448
rfoot -11.7329 -9.53929
rtoes -2.29885
lfemur -24.5879 7.34081 -20.3987
ltibia 59.1923
lfoot -24.3782 10.327
ltoes -10.8711
650
root -13.8966 15.768 0.716948 474.979 -94.724 -111.897
lowerback 21.4775 2.99658 -10.889
upperback 11.2954 0.855849 -2.41042
thorax 0.295385 -0.37418 3.36806
lowerneck -15.4542 4.57965 -3.41309
upperneck 49.5954 4.03255 2.11198
head 24.3211 0.143606 2.4758
rclavicle 1.59028e-014 3.89618e-014
rhumerus 44.3277 -36.287 -23.7778
rradius 148.664
rwrist -47.0632
rhand 17.4359 -35.4676
rfingers 7.12502
rthumb 42.1393 299.989
lclavicle 1.59028e-014 3.89618e-014
lhumerus 32.169 7.86414 23.4528
lradius 137.199
lwrist -12.1311
lhand -45.6475 274.791
lfingers 7.12502
lthumb -18.4066 -56.0595
rfemur -32.2189 -13.2219 5.22841
rtibia 80.8454
rfoot -12.6365 -9.31213
rtoes -2.20081
lfemur -21.6971 6.91224 -21.3884
ltibia 58.5583
lfoot -23.0059 11.3765
ltoes -13.1043
651
root -14.569 15.8826 0.728778 477.921 -94.4028 -114.603
lowerback 21.2512 2.45329 -10.4103
upperback 11.1514 0.302728 -2.21383
thorax 0.311506 -0.617386 3.43334
lowerneck -14.8769 4.80597 -3.0801
upperneck 49.7077 4.53655 1.26031
head 24.2275 0.273203 2.006
rclavicle -1.98785e-015 -1.98785e-014
rhumerus 44.0168 -36.6658 -23.4258
rradius 148.782
rwrist -46.7504
rhand 17.3921 -38.2626
rfingers 7.12502
rthumb 42.0983 297.18
lclavicle -1.98785e-015 -1.98785e-014
lhumerus 31.4136 7.71484 23.9776
lradius 137.284
lwrist -12.3941
lhand -46.5822 275.595
lfingers 7.12502
lthumb -19.3056 -55.3434
rfemur -35.3235 -12.6269 7.4153
rtibia 76.4364
rfoot -12.9186 -8.81455
rtoes -3.73224
lfemur -18.8258 5.96135 -20.6169
ltibia 57.8232
lfoot -21.1555 10.9565
ltoes -12.6278
652
root -15.2685 16.0378 0.737238 477.259 -94.2076 -113.829
lowerback 20.9426 2.07987 -10.106
upperback 11.0558 -0.0648021 -2.10275
thorax 0.400446 -0.782543 3.4593
lowerneck -14.3941 4.91078 -2.93852
upperneck 49.8743 4.73471 0.781672
head 24.2271 0.293409 1.72562
rclavicle 5.56597e-015 1.66979e-014
rhumerus 43.2812 -37.0222 -23.0265
rradius 149.138
rwrist -46.4063
rhand 14.9829 -38.067
rfingers 7.12502
rthumb 39.8355 296.658
lclavicle 5.56597e-015 1.66979e-014
lhumerus 31.2095 8.20732 24.9573
lradius 137.665
lwrist -10.1965
lhand -44.7382 278.537
lfingers 7.12502
lthumb -17.5317 -52.2332
rfemur -37.5515 -11.6369 9.10834
rtibia 70.6879
rfoot -12.3496 -7.65142
rtoes -5.75966
lfemur -16.0901 5.26522 -20.0215
ltibia 57.2295
lfoot -18.4922 10.623
ltoes -14.609
653
root -15.9944 16.1791 0.741672 478.001 -93.9833 -114.436
lowerback 20.5761 1.64379 -9.54973
upperback 10.8016 -0.45928 -2.07514
thorax 0.336571 -0.928864 3.25898
lowerneck -13.6107 4.97621 -2.89602
upperneck 49.9735 4.74569 0.589341
head 23.998 0.267725 1.5739
rclavicle 2.14687e-014 3.81667e-014
rhumerus 42.4691 -37.4017 -22.7557
rradius 149.283
rwrist -46.3649
rhand 12.287 -37.6291
rfingers 7.12502
rthumb 37.2921 296.382
lclavicle 2.14687e-014 3.81667e-014
lhumerus 30.989 8.16263 25.8242
lradius 137.529
lwrist -10.2271
lhand -45.104 279.21
lfingers 7.12502
lthumb -17.8837 -51.5926
rfemur -38.8709 -10.8029 10.6877
rtibia 63.9203
rfoot -10.8618 -6.24124
rtoes -8.25851
lfemur -13.1489 4.54501 -19.29
ltibia 56.4055
lfoot -15.5127 9.75716
ltoes -15.6486
654
root -16.7501 16.3338 0.744885 481.602 -93.7593 -117.754
lowerback 20.1859 1.17977 -9.15039
upperback 10.3414 -0.898341 -1.79904
thorax 0.0729373 -1.08717 3.42188
lowerneck -13.2767 5.1415 -2.4692
upperneck 50.6772 5.08058 -0.421996
head 24.7415 0.277275 0.959286
rclavicle 1.70955e-014 9.54166e-015
rhumerus 41.4034 -37.5316 -22.4076
rradius 149.881
rwrist -46.4985
rhand 10.4812 -40.0926
rfingers 7.12502
rthumb 35.5826 293.489
lclavicle 1.70955e-014 9.54166e-015
lhumerus 30.6821 8.00366 27.2846
lradius 137.266
lwrist -9.78749
lhand -45.1204 278.86
lfingers 7.12502
lthumb -17.8995 -51.9441
rfemur -39.5156 -10.2528 12.2254
rtibia 56.3147
rfoot -7.97616 -5.29838
rtoes -12.023
lfemur -10.7573 3.52599 -18.5276
ltibia 55.1984
lfoot -11.3318 9.64475
ltoes -21.6862
655
root -17.5095 16.4394 0.748966 482.092 -93.8497 -117.704
lowerback 18.6747 0.680659 -8.73689
upperback 10.3837 -1.27285 -1.83796
thorax 0.914319 -1.27718 3.18569
lowerneck -13.3624 5.25914 -2.24062
upperneck 50.7689 5.32498 -0.809377
head 24.9446 0.348075 0.7385
rclavicle -1.59028e-014 -4.21423e-014
rhumerus 40.7981 -37.8856 -22.4766
rradius 149.899
rwrist -46.2518
rhand 9.50492 -42.1389
rfingers 7.12502
rthumb 34.6566 291.226
lclavicle -1.59028e-014 -4.21423e-014
lhumerus 30.5161 8.30544 28.6813
lradius 137.386
lwrist -9.35396
lhand -46.4434 278.969
lfingers 7.12502
lthumb -19.1721 -51.9562
rfemur -40.238 -9.9038 13.2397
rtibia 48.6995
rfoot -4.25149 -4.82966
rtoes -18.1391
lfemur -8.30564 2.09975 -18.2196
ltibia 53.81
lfoot -8.49026 8.88802
ltoes -24.9857
656
root -18.2749 16.5277 0.752585 484.115 -93.7701 -119.06
lowerback 17.0304 0.100368 -8.27111
upperback 10.2955 -1.73815 -1.71146
thorax 1.70154 -1.49945 3.09298
lowerneck -13.2183 5.48034 -2.41648
upperneck 50.65 5.74059 -0.824576
head 24.7158 0.459565 0.851068
rclavicle -2.0276e-014 -3.89618e-014
rhumerus 40.4806 -37.0818 -22.5179
rradius 149.136
rwrist -45.9382
rhand 7.26394 -39.6254
rfingers 7.12502
rthumb 32.5269 293.276
lclavicle -2.0276e-014 -3.89618e-014
lhumerus 29.7955 8.45756 30.2
lradius 137.451
lwrist -8.55932
lhand -48.1907 278.814
lfingers 7.12502
lthumb -20.8516 -52.2866
rfemur -40.7241 -9.0334 14.1587
rtibia 41.4467
rfoot -1.46174 -5.07388
rtoes -28.3019
lfemur -5.9514 0.736785 -17.7699
ltibia 52.4804
lfoot -6.23822 7.97974
ltoes -27.4021
657
root -19.0643 16.5581 0.743387 488.77 -94.3781 -123.584
lowerback 15.1846 -0.351667 -8.15929
upperback 10.6417 -2.09697 -1.69588
thorax 3.08099 -1.72857 3.02124
lowerneck -13.1052 5.46106 -2.34385
upperneck 50.2437 5.68948 -0.699901
head 24.1989 0.50855 0.900014
rclavicle 1.94809e-014 2.38542e-014
rhumerus 39.4101 -37.9264 -22.8491
rradius 149.951
rwrist -45.9286
rhand 4.91468 -42.8866
rfingers 7.12502
rthumb 30.2886 289.579
lclavicle 1.94809e-014 2.38542e-014
lhumerus 29.6135 8.34667 31.8121
lradius 137.137
lwrist -7.99421
lhand -50.4213 277.677
lfingers 7.12502
lthumb -22.9934 -53.6746
rfemur -40.8466 -8.71601 14.3175
rtibia 35.794
rfoot -0.354969 -5.20342
rtoes -27.213
lfemur -3.0205 -1.08771 -17.8159
ltibia 51.5508
lfoot -4.53758 6.97794
ltoes -26.8106
